<svg width="68" height="35" viewBox="0 0 68 35" fill="none" xmlns="http://www.w3.org/2000/svg">
<g filter="url(#filter0_d_17_139)">
<path d="M3.932 4.328C4.148 3.104 4.772 2.156 5.804 1.484C6.836 0.811998 8.192 0.475998 9.872 0.475998L5.984 22.472C5.768 23.696 5.144 24.644 4.112 25.316C3.08 25.988 1.724 26.324 0.044 26.324L3.932 4.328ZM38.1295 26C37.4575 26 36.9055 25.82 36.4735 25.46C36.0655 25.076 35.8615 24.596 35.8615 24.02C35.8615 23.828 35.8735 23.684 35.8975 23.588L39.4975 3.212C39.6175 2.516 39.9775 1.94 40.5775 1.484C41.1775 1.028 41.8495 0.799998 42.5935 0.799998H50.4415C52.2415 0.799998 53.8495 1.16 55.2655 1.88C56.7055 2.6 57.8215 3.596 58.6135 4.868C59.4055 6.14 59.8015 7.556 59.8015 9.116C59.8015 9.716 59.7535 10.256 59.6575 10.736L58.7215 15.992C58.1215 19.28 56.7535 21.776 54.6175 23.48C52.4815 25.16 49.6015 26 45.9775 26H38.1295ZM46.4095 21.464C48.4015 21.464 49.9855 21.008 51.1615 20.096C52.3615 19.184 53.1175 17.84 53.4295 16.064L54.3655 10.664C54.4375 10.184 54.4735 9.752 54.4735 9.368C54.4735 8.048 54.0295 7.052 53.1415 6.38C52.2775 5.684 50.9815 5.336 49.2535 5.336H44.3935L41.5495 21.464H46.4095Z" fill="#FDFDFD"/>
<path d="M12.6395 26.324C11.9675 26.324 11.3555 26.204 10.8035 25.964C10.2515 25.724 9.8195 25.388 9.5075 24.956L20.0915 13.04L14.0435 1.484C14.7875 0.811998 15.6875 0.475998 16.7435 0.475998C17.5115 0.475998 18.1955 0.607999 18.7955 0.872C19.4195 1.112 19.8155 1.424 19.9835 1.808L23.1875 8.684L21.8555 10.16L22.2155 10.448L29.4875 1.808C29.8235 1.4 30.3395 1.076 31.0355 0.835998C31.7315 0.595998 32.4635 0.475998 33.2315 0.475998C33.8555 0.475998 34.4435 0.571998 34.9955 0.763999C35.5475 0.955999 35.9315 1.196 36.1475 1.484L25.9955 13.04L32.4035 24.956C31.8515 25.46 31.3475 25.808 30.8915 26C30.4595 26.216 29.9435 26.324 29.3435 26.324C28.7195 26.324 28.1675 26.204 27.6875 25.964C27.2075 25.7 26.8595 25.352 26.6435 24.92L22.6835 16.928L15.8435 24.92C15.4595 25.376 14.9795 25.724 14.4035 25.964C13.8515 26.204 13.2635 26.324 12.6395 26.324Z" fill="#C71F37"/>
</g>
<defs>
<filter id="filter0_d_17_139" x="0.0440063" y="0.476013" width="67.7574" height="33.848" filterUnits="userSpaceOnUse" color-interpolation-filters="sRGB">
<feFlood flood-opacity="0" result="BackgroundImageFix"/>
<feColorMatrix in="SourceAlpha" type="matrix" values="0 0 0 0 0 0 0 0 0 0 0 0 0 0 0 0 0 0 127 0" result="hardAlpha"/>
<feOffset dx="4" dy="4"/>
<feGaussianBlur stdDeviation="2"/>
<feComposite in2="hardAlpha" operator="out"/>
<feColorMatrix type="matrix" values="0 0 0 0 0.129412 0 0 0 0 0.145098 0 0 0 0 0.160784 0 0 0 0.15 0"/>
<feBlend mode="normal" in2="BackgroundImageFix" result="effect1_dropShadow_17_139"/>
<feBlend mode="normal" in="SourceGraphic" in2="effect1_dropShadow_17_139" result="shape"/>
</filter>
</defs>
</svg>
