<svg width="60" height="27" viewBox="0 0 60 27" fill="none" xmlns="http://www.w3.org/2000/svg">
<path d="M4.112 4.076C4.304 2.924 4.868 2.036 5.804 1.412C6.764 0.787998 8.012 0.475998 9.548 0.475998L5.588 22.724C5.396 23.876 4.832 24.764 3.896 25.388C2.96 26.012 1.724 26.324 0.188 26.324L4.112 4.076ZM37.7051 26C37.1051 26 36.6131 25.844 36.2291 25.532C35.8451 25.196 35.6531 24.764 35.6531 24.236C35.6531 24.044 35.6651 23.9 35.6891 23.804L39.3611 2.996C39.4571 2.372 39.7691 1.856 40.2971 1.448C40.8491 1.016 41.4731 0.799998 42.1691 0.799998H50.1611C51.9611 0.799998 53.5571 1.148 54.9491 1.844C56.3651 2.54 57.4571 3.512 58.2251 4.76C59.0171 5.984 59.4131 7.364 59.4131 8.9C59.4131 9.5 59.3651 10.04 59.2691 10.52L58.2611 16.208C57.6851 19.4 56.3291 21.836 54.1931 23.516C52.0571 25.172 49.2251 26 45.6971 26H37.7051ZM46.0931 21.86C48.1811 21.86 49.8491 21.38 51.0971 20.42C52.3451 19.46 53.1251 18.068 53.4371 16.244L54.4451 10.448C54.5411 9.824 54.5891 9.38 54.5891 9.116C54.5891 7.748 54.1211 6.716 53.1851 6.02C52.2491 5.3 50.8691 4.94 49.0451 4.94H43.8251L40.8371 21.86H46.0931Z" fill="#212529"/>
<path d="M12.1766 26.324C11.5766 26.324 11.0246 26.216 10.5206 26C10.0166 25.784 9.63256 25.484 9.36856 25.1L20.0966 13.04L13.9766 1.376C14.6966 0.775999 15.5126 0.475998 16.4246 0.475998C17.1206 0.475998 17.7446 0.595998 18.2966 0.835998C18.8726 1.052 19.2446 1.352 19.4126 1.736L22.9406 9.08L21.6806 10.448L22.0046 10.7L29.6366 1.736C29.9726 1.352 30.4526 1.052 31.0766 0.835998C31.7246 0.595998 32.3966 0.475998 33.0926 0.475998C33.6206 0.475998 34.1366 0.559999 34.6406 0.727999C35.1686 0.895998 35.5286 1.112 35.7206 1.376L25.4606 13.04L31.9406 25.1C31.4846 25.556 31.0406 25.868 30.6086 26.036C30.2006 26.228 29.7206 26.324 29.1686 26.324C28.5926 26.324 28.0766 26.204 27.6206 25.964C27.1886 25.724 26.8766 25.4 26.6846 24.992L22.4366 16.568L15.1646 24.992C14.7806 25.424 14.3246 25.76 13.7966 26C13.2926 26.216 12.7526 26.324 12.1766 26.324Z" fill="#C71F37"/>
</svg>
