<svg width="366" height="282" viewBox="0 0 366 282" fill="none" xmlns="http://www.w3.org/2000/svg">
<g clip-path="url(#clip0_149_783)">
<path d="M93.176 56.048C93.8587 51.952 95.864 48.7947 99.192 46.576C102.605 44.3573 107.043 43.248 112.504 43.248L98.424 122.352C97.7413 126.448 95.736 129.605 92.408 131.824C89.08 134.043 84.6853 135.152 79.224 135.152L93.176 56.048ZM212.618 134C210.485 134 208.735 133.445 207.37 132.336C206.005 131.141 205.322 129.605 205.322 127.728C205.322 127.045 205.365 126.533 205.45 126.192L218.506 52.208C218.847 49.9893 219.957 48.1547 221.834 46.704C223.797 45.168 226.015 44.4 228.49 44.4H256.906C263.306 44.4 268.981 45.6373 273.93 48.112C278.965 50.5867 282.847 54.0427 285.578 58.48C288.394 62.832 289.802 67.7387 289.802 73.2C289.802 75.3333 289.631 77.2533 289.29 78.96L285.706 99.184C283.658 110.533 278.837 119.195 271.242 125.168C263.647 131.056 253.578 134 241.034 134H212.618ZM242.442 119.28C249.866 119.28 255.797 117.573 260.234 114.16C264.671 110.747 267.445 105.797 268.554 99.312L272.138 78.704C272.479 76.4853 272.65 74.9067 272.65 73.968C272.65 69.104 270.986 65.4347 267.658 62.96C264.33 60.4 259.423 59.12 252.938 59.12H234.378L223.754 119.28H242.442Z" fill="#212529"/>
<path d="M121.85 135.152C119.717 135.152 117.754 134.768 115.962 134C114.17 133.232 112.805 132.165 111.866 130.8L150.01 87.92L128.25 46.448C130.81 44.3147 133.711 43.248 136.954 43.248C139.429 43.248 141.647 43.6747 143.61 44.528C145.658 45.296 146.981 46.3627 147.578 47.728L160.122 73.84L155.642 78.704L156.794 79.6L183.93 47.728C185.125 46.3627 186.831 45.296 189.05 44.528C191.354 43.6747 193.743 43.248 196.218 43.248C198.095 43.248 199.93 43.5467 201.722 44.144C203.599 44.7413 204.879 45.5093 205.562 46.448L169.082 87.92L192.122 130.8C190.501 132.421 188.922 133.531 187.386 134.128C185.935 134.811 184.229 135.152 182.266 135.152C180.218 135.152 178.383 134.725 176.762 133.872C175.226 133.019 174.117 131.867 173.434 130.416L158.33 100.464L132.474 130.416C131.109 131.952 129.487 133.147 127.61 134C125.818 134.768 123.898 135.152 121.85 135.152Z" fill="#C71F37"/>
<path d="M18.133 197.28V191.2H39.333V197.28H18.133ZM35.053 181H41.813V209H35.053V181ZM16.253 181H23.013V209H16.253V181ZM51.7783 203.52C51.7783 203.947 51.8983 204.307 52.1383 204.6C52.3783 204.867 52.6983 205.08 53.0983 205.24C53.5249 205.373 53.9649 205.44 54.4183 205.44C55.1649 205.44 55.8449 205.32 56.4583 205.08C57.0983 204.84 57.6049 204.44 57.9783 203.88C58.3516 203.32 58.5383 202.547 58.5383 201.56L59.1783 203.8C59.1783 204.973 58.8716 205.987 58.2583 206.84C57.6716 207.667 56.8583 208.307 55.8183 208.76C54.8049 209.187 53.6583 209.4 52.3783 209.4C51.0983 209.4 49.9516 209.187 48.9383 208.76C47.9249 208.307 47.1249 207.667 46.5383 206.84C45.9783 205.987 45.6983 204.96 45.6983 203.76C45.6983 202.533 46.0183 201.48 46.6583 200.6C47.3249 199.72 48.2583 199.04 49.4583 198.56C50.6583 198.08 52.0583 197.84 53.6583 197.84C54.5916 197.84 55.4716 197.947 56.2983 198.16C57.1516 198.347 57.8849 198.6 58.4983 198.92C59.1383 199.213 59.5916 199.507 59.8583 199.8V202.64C59.1649 202.133 58.4449 201.76 57.6983 201.52C56.9783 201.253 56.0983 201.12 55.0583 201.12C54.3649 201.12 53.7649 201.227 53.2583 201.44C52.7783 201.627 52.4049 201.893 52.1383 202.24C51.8983 202.587 51.7783 203.013 51.7783 203.52ZM49.4183 196.28L47.3783 192.2C48.4183 191.693 49.6583 191.213 51.0983 190.76C52.5649 190.307 54.1249 190.08 55.7783 190.08C57.4316 190.08 58.8983 190.32 60.1783 190.8C61.4849 191.253 62.4983 191.92 63.2183 192.8C63.9649 193.68 64.3383 194.76 64.3383 196.04V209H58.5383V197.24C58.5383 196.467 58.2449 195.853 57.6583 195.4C57.0983 194.92 56.3116 194.68 55.2983 194.68C54.4183 194.68 53.5783 194.773 52.7783 194.96C52.0049 195.147 51.3249 195.373 50.7383 195.64C50.1516 195.88 49.7116 196.093 49.4183 196.28ZM100.208 190.6V209H94.4083V196.08H87.6083V202.6C87.6083 204.04 87.3416 205.24 86.8083 206.2C86.2749 207.133 85.3683 207.84 84.0883 208.32C82.8349 208.773 81.1016 209 78.8883 209V203.6C79.6883 203.6 80.3683 203.453 80.9283 203.16C81.5149 202.84 81.8083 202.16 81.8083 201.12V190.6H100.208ZM107.65 201.56V197.04H118.45V201.56H107.65ZM105.77 190.6H111.61V209H105.77V190.6ZM113.93 199.8C113.93 197.853 114.383 196.16 115.29 194.72C116.223 193.28 117.477 192.16 119.05 191.36C120.65 190.56 122.45 190.16 124.45 190.16C126.45 190.16 128.237 190.56 129.81 191.36C131.41 192.16 132.663 193.28 133.57 194.72C134.503 196.16 134.97 197.853 134.97 199.8C134.97 201.72 134.503 203.4 133.57 204.84C132.663 206.28 131.41 207.4 129.81 208.2C128.237 209 126.45 209.4 124.45 209.4C122.45 209.4 120.65 209 119.05 208.2C117.477 207.4 116.223 206.28 115.29 204.84C114.383 203.4 113.93 201.72 113.93 199.8ZM120.17 199.8C120.17 200.76 120.357 201.587 120.73 202.28C121.13 202.947 121.65 203.467 122.29 203.84C122.93 204.213 123.65 204.4 124.45 204.4C125.223 204.4 125.93 204.213 126.57 203.84C127.237 203.467 127.757 202.947 128.13 202.28C128.53 201.587 128.73 200.76 128.73 199.8C128.73 198.84 128.53 198.013 128.13 197.32C127.757 196.627 127.237 196.093 126.57 195.72C125.93 195.347 125.223 195.16 124.45 195.16C123.65 195.16 122.93 195.347 122.29 195.72C121.65 196.093 121.13 196.627 120.73 197.32C120.357 198.013 120.17 198.84 120.17 199.8ZM148.702 195.16L149.182 190.2C151.155 190.2 152.888 190.613 154.382 191.44C155.902 192.267 157.075 193.4 157.902 194.84C158.755 196.28 159.182 197.933 159.182 199.8C159.182 201.64 158.742 203.293 157.862 204.76C157.008 206.2 155.795 207.333 154.222 208.16C152.675 208.987 150.822 209.4 148.662 209.4C146.555 209.4 144.662 208.96 142.982 208.08C141.328 207.173 140.022 205.827 139.062 204.04C138.128 202.253 137.662 200.04 137.662 197.4L144.342 199.8C144.342 200.76 144.542 201.587 144.942 202.28C145.342 202.947 145.862 203.467 146.502 203.84C147.168 204.213 147.888 204.4 148.662 204.4C149.462 204.4 150.182 204.213 150.822 203.84C151.462 203.467 151.982 202.947 152.382 202.28C152.782 201.587 152.982 200.76 152.982 199.8C152.982 198.84 152.782 198.013 152.382 197.32C152.008 196.627 151.488 196.093 150.822 195.72C150.182 195.347 149.475 195.16 148.702 195.16ZM141.662 199.8C141.662 198.307 141.835 196.973 142.182 195.8C142.528 194.6 143.035 193.587 143.702 192.76C144.368 191.933 145.155 191.307 146.062 190.88C146.995 190.427 148.035 190.2 149.182 190.2L148.702 195.16C148.168 195.16 147.635 195.267 147.102 195.48C146.568 195.667 146.088 195.96 145.662 196.36C145.262 196.76 144.942 197.253 144.702 197.84C144.462 198.4 144.342 199.053 144.342 199.8H141.662ZM137.662 197.4C137.662 194.893 137.875 192.693 138.302 190.8C138.755 188.88 139.555 187.24 140.702 185.88C141.848 184.493 143.462 183.373 145.542 182.52C147.355 181.773 148.742 181.04 149.702 180.32C150.688 179.6 151.275 178.76 151.462 177.8H157.262C157.128 178.973 156.702 180.093 155.982 181.16C155.262 182.227 154.315 183.187 153.142 184.04C151.995 184.867 150.688 185.56 149.222 186.12C147.595 186.733 146.315 187.507 145.382 188.44C144.475 189.373 143.835 190.44 143.462 191.64C143.115 192.813 142.942 194.067 142.942 195.4L143.942 199.76L137.662 197.4ZM161.878 199.8C161.878 197.853 162.331 196.16 163.238 194.72C164.144 193.28 165.398 192.16 166.998 191.36C168.598 190.56 170.398 190.16 172.398 190.16C174.398 190.16 176.184 190.56 177.758 191.36C179.358 192.16 180.611 193.28 181.518 194.72C182.451 196.16 182.918 197.853 182.918 199.8C182.918 201.72 182.451 203.4 181.518 204.84C180.611 206.28 179.358 207.4 177.758 208.2C176.184 209 174.398 209.4 172.398 209.4C170.398 209.4 168.598 209 166.998 208.2C165.398 207.4 164.144 206.28 163.238 204.84C162.331 203.4 161.878 201.72 161.878 199.8ZM168.078 199.8C168.078 200.76 168.278 201.587 168.678 202.28C169.078 202.947 169.598 203.467 170.238 203.84C170.878 204.213 171.598 204.4 172.398 204.4C173.171 204.4 173.878 204.213 174.518 203.84C175.184 203.467 175.704 202.947 176.078 202.28C176.478 201.587 176.678 200.76 176.678 199.8C176.678 198.84 176.478 198.013 176.078 197.32C175.704 196.627 175.184 196.093 174.518 195.72C173.878 195.347 173.171 195.16 172.398 195.16C171.598 195.16 170.878 195.347 170.238 195.72C169.598 196.093 169.078 196.627 168.678 197.32C168.278 198.013 168.078 198.84 168.078 199.8ZM205.191 195.8L186.631 210.4L186.831 203.8L205.391 189.2L205.191 195.8ZM192.471 190.6V204.76L186.631 210.4V190.6H192.471ZM205.391 189.2V209H199.591V194.84L205.391 189.2ZM189.751 181.2H193.711C193.711 181.653 193.818 182.067 194.031 182.44C194.245 182.787 194.551 183.067 194.951 183.28C195.351 183.467 195.805 183.56 196.311 183.56C196.818 183.56 197.271 183.467 197.671 183.28C198.071 183.067 198.378 182.787 198.591 182.44C198.805 182.067 198.911 181.653 198.911 181.2H202.871C202.871 182.267 202.618 183.253 202.111 184.16C201.605 185.04 200.858 185.747 199.871 186.28C198.911 186.787 197.725 187.04 196.311 187.04C194.925 187.04 193.738 186.787 192.751 186.28C191.765 185.747 191.018 185.04 190.511 184.16C190.005 183.253 189.751 182.267 189.751 181.2ZM227.295 199.8C227.295 200.787 227.509 201.64 227.935 202.36C228.362 203.053 228.949 203.6 229.695 204C230.469 204.4 231.295 204.6 232.175 204.6C232.922 204.6 233.629 204.493 234.295 204.28C234.989 204.04 235.615 203.72 236.175 203.32C236.762 202.92 237.242 202.427 237.615 201.84V207.72C236.975 208.227 236.175 208.64 235.215 208.96C234.255 209.253 233.082 209.4 231.695 209.4C229.669 209.4 227.842 209 226.215 208.2C224.615 207.4 223.349 206.28 222.415 204.84C221.509 203.4 221.055 201.72 221.055 199.8C221.055 197.853 221.509 196.173 222.415 194.76C223.349 193.32 224.615 192.2 226.215 191.4C227.842 190.6 229.669 190.2 231.695 190.2C233.082 190.2 234.255 190.36 235.215 190.68C236.175 190.973 236.975 191.347 237.615 191.8V197.72C237.242 197.133 236.749 196.64 236.135 196.24C235.549 195.84 234.909 195.533 234.215 195.32C233.522 195.107 232.842 195 232.175 195C231.295 195 230.469 195.213 229.695 195.64C228.949 196.067 228.362 196.64 227.935 197.36C227.509 198.08 227.295 198.893 227.295 199.8ZM261.341 190.6V209H255.541V196.08H248.741V202.6C248.741 204.04 248.474 205.24 247.941 206.2C247.408 207.133 246.501 207.84 245.221 208.32C243.968 208.773 242.234 209 240.021 209V203.6C240.821 203.6 241.501 203.453 242.061 203.16C242.648 202.84 242.941 202.16 242.941 201.12V190.6H261.341ZM285.743 190.6L273.743 217.8H267.663L272.143 207.52L264.183 190.6H270.823L276.783 205.36L273.663 205.32L279.543 190.6H285.743ZM294.602 204.4L296.362 199.4H300.882V204.4H294.602ZM298.602 190.6H304.642V209H298.602V190.6ZM293.442 190.6V196.36C293.442 197.107 293.536 197.707 293.722 198.16C293.936 198.587 294.256 198.907 294.682 199.12C295.109 199.307 295.669 199.4 296.362 199.4L294.602 204.4C292.762 204.4 291.309 204.067 290.242 203.4C289.202 202.707 288.469 201.733 288.042 200.48C287.616 199.2 287.402 197.667 287.402 195.88V190.6H293.442ZM314.317 203.52C314.317 203.947 314.437 204.307 314.677 204.6C314.917 204.867 315.237 205.08 315.637 205.24C316.064 205.373 316.504 205.44 316.957 205.44C317.704 205.44 318.384 205.32 318.997 205.08C319.637 204.84 320.144 204.44 320.517 203.88C320.891 203.32 321.077 202.547 321.077 201.56L321.717 203.8C321.717 204.973 321.411 205.987 320.797 206.84C320.211 207.667 319.397 208.307 318.357 208.76C317.344 209.187 316.197 209.4 314.917 209.4C313.637 209.4 312.491 209.187 311.477 208.76C310.464 208.307 309.664 207.667 309.077 206.84C308.517 205.987 308.237 204.96 308.237 203.76C308.237 202.533 308.557 201.48 309.197 200.6C309.864 199.72 310.797 199.04 311.997 198.56C313.197 198.08 314.597 197.84 316.197 197.84C317.131 197.84 318.011 197.947 318.837 198.16C319.691 198.347 320.424 198.6 321.037 198.92C321.677 199.213 322.131 199.507 322.397 199.8V202.64C321.704 202.133 320.984 201.76 320.237 201.52C319.517 201.253 318.637 201.12 317.597 201.12C316.904 201.12 316.304 201.227 315.797 201.44C315.317 201.627 314.944 201.893 314.677 202.24C314.437 202.587 314.317 203.013 314.317 203.52ZM311.957 196.28L309.917 192.2C310.957 191.693 312.197 191.213 313.637 190.76C315.104 190.307 316.664 190.08 318.317 190.08C319.971 190.08 321.437 190.32 322.717 190.8C324.024 191.253 325.037 191.92 325.757 192.8C326.504 193.68 326.877 194.76 326.877 196.04V209H321.077V197.24C321.077 196.467 320.784 195.853 320.197 195.4C319.637 194.92 318.851 194.68 317.837 194.68C316.957 194.68 316.117 194.773 315.317 194.96C314.544 195.147 313.864 195.373 313.277 195.64C312.691 195.88 312.251 196.093 311.957 196.28ZM350.035 195.8L331.475 210.4L331.675 203.8L350.235 189.2L350.035 195.8ZM337.315 190.6V204.76L331.475 210.4V190.6H337.315ZM350.235 189.2V209H344.435V194.84L350.235 189.2ZM334.595 181.2H338.555C338.555 181.653 338.662 182.067 338.875 182.44C339.088 182.787 339.395 183.067 339.795 183.28C340.195 183.467 340.648 183.56 341.155 183.56C341.662 183.56 342.115 183.467 342.515 183.28C342.915 183.067 343.222 182.787 343.435 182.44C343.648 182.067 343.755 181.653 343.755 181.2H347.715C347.715 182.267 347.462 183.253 346.955 184.16C346.448 185.04 345.702 185.747 344.715 186.28C343.755 186.787 342.568 187.04 341.155 187.04C339.768 187.04 338.582 186.787 337.595 186.28C336.608 185.747 335.862 185.04 335.355 184.16C334.848 183.253 334.595 182.267 334.595 181.2ZM22.2005 248.6V267H16.4005V254.08H9.60047V260.6C9.60047 262.04 9.3338 263.24 8.80047 264.2C8.26714 265.133 7.36047 265.84 6.08047 266.32C4.82714 266.773 3.0938 267 0.880469 267V261.6C1.68047 261.6 2.36047 261.453 2.92047 261.16C3.50714 260.84 3.80047 260.16 3.80047 259.12V248.6H22.2005ZM29.6423 259.56V255.04H40.4423V259.56H29.6423ZM27.7623 248.6H33.6023V267H27.7623V248.6ZM35.9223 257.8C35.9223 255.853 36.3757 254.16 37.2823 252.72C38.2157 251.28 39.469 250.16 41.0423 249.36C42.6423 248.56 44.4423 248.16 46.4423 248.16C48.4423 248.16 50.229 248.56 51.8023 249.36C53.4023 250.16 54.6557 251.28 55.5623 252.72C56.4957 254.16 56.9623 255.853 56.9623 257.8C56.9623 259.72 56.4957 261.4 55.5623 262.84C54.6557 264.28 53.4023 265.4 51.8023 266.2C50.229 267 48.4423 267.4 46.4423 267.4C44.4423 267.4 42.6423 267 41.0423 266.2C39.469 265.4 38.2157 264.28 37.2823 262.84C36.3757 261.4 35.9223 259.72 35.9223 257.8ZM42.1623 257.8C42.1623 258.76 42.349 259.587 42.7223 260.28C43.1223 260.947 43.6423 261.467 44.2823 261.84C44.9223 262.213 45.6423 262.4 46.4423 262.4C47.2157 262.4 47.9223 262.213 48.5623 261.84C49.229 261.467 49.749 260.947 50.1223 260.28C50.5223 259.587 50.7223 258.76 50.7223 257.8C50.7223 256.84 50.5223 256.013 50.1223 255.32C49.749 254.627 49.229 254.093 48.5623 253.72C47.9223 253.347 47.2157 253.16 46.4423 253.16C45.6423 253.16 44.9223 253.347 44.2823 253.72C43.6423 254.093 43.1223 254.627 42.7223 255.32C42.349 256.013 42.1623 256.84 42.1623 257.8ZM70.6939 253.16L71.1739 248.2C73.1472 248.2 74.8806 248.613 76.3739 249.44C77.8939 250.267 79.0672 251.4 79.8939 252.84C80.7472 254.28 81.1739 255.933 81.1739 257.8C81.1739 259.64 80.7339 261.293 79.8539 262.76C79.0006 264.2 77.7872 265.333 76.2139 266.16C74.6672 266.987 72.8139 267.4 70.6539 267.4C68.5472 267.4 66.6539 266.96 64.9739 266.08C63.3206 265.173 62.0139 263.827 61.0539 262.04C60.1206 260.253 59.6539 258.04 59.6539 255.4L66.3339 257.8C66.3339 258.76 66.5339 259.587 66.9339 260.28C67.3339 260.947 67.8539 261.467 68.4939 261.84C69.1606 262.213 69.8806 262.4 70.6539 262.4C71.4539 262.4 72.1739 262.213 72.8139 261.84C73.4539 261.467 73.9739 260.947 74.3739 260.28C74.7739 259.587 74.9739 258.76 74.9739 257.8C74.9739 256.84 74.7739 256.013 74.3739 255.32C74.0006 254.627 73.4806 254.093 72.8139 253.72C72.1739 253.347 71.4672 253.16 70.6939 253.16ZM63.6539 257.8C63.6539 256.307 63.8272 254.973 64.1739 253.8C64.5206 252.6 65.0272 251.587 65.6939 250.76C66.3606 249.933 67.1472 249.307 68.0539 248.88C68.9872 248.427 70.0272 248.2 71.1739 248.2L70.6939 253.16C70.1606 253.16 69.6272 253.267 69.0939 253.48C68.5606 253.667 68.0806 253.96 67.6539 254.36C67.2539 254.76 66.9339 255.253 66.6939 255.84C66.4539 256.4 66.3339 257.053 66.3339 257.8H63.6539ZM59.6539 255.4C59.6539 252.893 59.8672 250.693 60.2939 248.8C60.7472 246.88 61.5472 245.24 62.6939 243.88C63.8406 242.493 65.4539 241.373 67.5339 240.52C69.3472 239.773 70.7339 239.04 71.6939 238.32C72.6806 237.6 73.2672 236.76 73.4539 235.8H79.2539C79.1206 236.973 78.6939 238.093 77.9739 239.16C77.2539 240.227 76.3072 241.187 75.1339 242.04C73.9872 242.867 72.6806 243.56 71.2139 244.12C69.5872 244.733 68.3072 245.507 67.3739 246.44C66.4672 247.373 65.8272 248.44 65.4539 249.64C65.1072 250.813 64.9339 252.067 64.9339 253.4L65.9339 257.76L59.6539 255.4ZM83.8698 257.8C83.8698 255.853 84.3232 254.16 85.2298 252.72C86.1365 251.28 87.3898 250.16 88.9898 249.36C90.5898 248.56 92.3898 248.16 94.3898 248.16C96.3898 248.16 98.1765 248.56 99.7498 249.36C101.35 250.16 102.603 251.28 103.51 252.72C104.443 254.16 104.91 255.853 104.91 257.8C104.91 259.72 104.443 261.4 103.51 262.84C102.603 264.28 101.35 265.4 99.7498 266.2C98.1765 267 96.3898 267.4 94.3898 267.4C92.3898 267.4 90.5898 267 88.9898 266.2C87.3898 265.4 86.1365 264.28 85.2298 262.84C84.3232 261.4 83.8698 259.72 83.8698 257.8ZM90.0698 257.8C90.0698 258.76 90.2698 259.587 90.6698 260.28C91.0698 260.947 91.5898 261.467 92.2298 261.84C92.8698 262.213 93.5898 262.4 94.3898 262.4C95.1632 262.4 95.8698 262.213 96.5098 261.84C97.1765 261.467 97.6965 260.947 98.0698 260.28C98.4698 259.587 98.6698 258.76 98.6698 257.8C98.6698 256.84 98.4698 256.013 98.0698 255.32C97.6965 254.627 97.1765 254.093 96.5098 253.72C95.8698 253.347 95.1632 253.16 94.3898 253.16C93.5898 253.16 92.8698 253.347 92.2298 253.72C91.5898 254.093 91.0698 254.627 90.6698 255.32C90.2698 256.013 90.0698 256.84 90.0698 257.8ZM127.184 253.8L108.624 268.4L108.824 261.8L127.384 247.2L127.184 253.8ZM114.464 248.6V262.76L108.624 268.4V248.6H114.464ZM127.384 247.2V267H121.584V252.84L127.384 247.2ZM111.744 239.2H115.704C115.704 239.653 115.81 240.067 116.024 240.44C116.237 240.787 116.544 241.067 116.944 241.28C117.344 241.467 117.797 241.56 118.304 241.56C118.81 241.56 119.264 241.467 119.664 241.28C120.064 241.067 120.37 240.787 120.584 240.44C120.797 240.067 120.904 239.653 120.904 239.2H124.864C124.864 240.267 124.61 241.253 124.104 242.16C123.597 243.04 122.85 243.747 121.864 244.28C120.904 244.787 119.717 245.04 118.304 245.04C116.917 245.04 115.73 244.787 114.744 244.28C113.757 243.747 113.01 243.04 112.504 242.16C111.997 241.253 111.744 240.267 111.744 239.2ZM148.888 261.52C148.888 261.947 149.008 262.307 149.248 262.6C149.488 262.867 149.808 263.08 150.208 263.24C150.634 263.373 151.074 263.44 151.528 263.44C152.274 263.44 152.954 263.32 153.568 263.08C154.208 262.84 154.714 262.44 155.088 261.88C155.461 261.32 155.648 260.547 155.648 259.56L156.288 261.8C156.288 262.973 155.981 263.987 155.368 264.84C154.781 265.667 153.968 266.307 152.928 266.76C151.914 267.187 150.768 267.4 149.488 267.4C148.208 267.4 147.061 267.187 146.048 266.76C145.034 266.307 144.234 265.667 143.648 264.84C143.088 263.987 142.808 262.96 142.808 261.76C142.808 260.533 143.128 259.48 143.768 258.6C144.434 257.72 145.368 257.04 146.568 256.56C147.768 256.08 149.168 255.84 150.768 255.84C151.701 255.84 152.581 255.947 153.408 256.16C154.261 256.347 154.994 256.6 155.608 256.92C156.248 257.213 156.701 257.507 156.968 257.8V260.64C156.274 260.133 155.554 259.76 154.808 259.52C154.088 259.253 153.208 259.12 152.168 259.12C151.474 259.12 150.874 259.227 150.368 259.44C149.888 259.627 149.514 259.893 149.248 260.24C149.008 260.587 148.888 261.013 148.888 261.52ZM146.528 254.28L144.488 250.2C145.528 249.693 146.768 249.213 148.208 248.76C149.674 248.307 151.234 248.08 152.888 248.08C154.541 248.08 156.008 248.32 157.288 248.8C158.594 249.253 159.608 249.92 160.328 250.8C161.074 251.68 161.448 252.76 161.448 254.04V267H155.648V255.24C155.648 254.467 155.354 253.853 154.768 253.4C154.208 252.92 153.421 252.68 152.408 252.68C151.528 252.68 150.688 252.773 149.888 252.96C149.114 253.147 148.434 253.373 147.848 253.64C147.261 253.88 146.821 254.093 146.528 254.28ZM170.085 257.4H176.645C177.925 257.4 179.072 257.533 180.085 257.8C181.099 258.067 181.899 258.533 182.485 259.2C183.072 259.867 183.365 260.8 183.365 262C183.365 263.387 182.899 264.573 181.965 265.56C181.059 266.52 179.552 267 177.445 267H170.085V263.2H175.405C176.259 263.2 176.845 263.013 177.165 262.64C177.512 262.24 177.685 261.813 177.685 261.36C177.685 261.12 177.645 260.893 177.565 260.68C177.485 260.467 177.352 260.28 177.165 260.12C177.005 259.96 176.779 259.827 176.485 259.72C176.192 259.613 175.832 259.56 175.405 259.56H170.085V257.4ZM170.085 258.2V255.84H175.005C175.325 255.84 175.592 255.8 175.805 255.72C176.045 255.613 176.245 255.48 176.405 255.32C176.565 255.16 176.685 254.973 176.765 254.76C176.845 254.547 176.885 254.333 176.885 254.12C176.885 253.64 176.725 253.24 176.405 252.92C176.085 252.573 175.619 252.4 175.005 252.4H170.085V248.6H176.245C177.392 248.6 178.432 248.773 179.365 249.12C180.325 249.44 181.099 249.973 181.685 250.72C182.272 251.44 182.565 252.4 182.565 253.6C182.565 254.64 182.272 255.507 181.685 256.2C181.099 256.867 180.325 257.373 179.365 257.72C178.432 258.04 177.392 258.2 176.245 258.2H170.085ZM166.605 248.6H172.405V267H166.605V248.6ZM184.782 248.6H197.702V253.6H184.782V248.6ZM188.342 249.4H194.142V267H188.342V249.4ZM198.596 257.8C198.596 255.853 199.05 254.16 199.956 252.72C200.863 251.28 202.116 250.16 203.716 249.36C205.316 248.56 207.116 248.16 209.116 248.16C211.116 248.16 212.903 248.56 214.476 249.36C216.076 250.16 217.33 251.28 218.236 252.72C219.17 254.16 219.636 255.853 219.636 257.8C219.636 259.72 219.17 261.4 218.236 262.84C217.33 264.28 216.076 265.4 214.476 266.2C212.903 267 211.116 267.4 209.116 267.4C207.116 267.4 205.316 267 203.716 266.2C202.116 265.4 200.863 264.28 199.956 262.84C199.05 261.4 198.596 259.72 198.596 257.8ZM204.796 257.8C204.796 258.76 204.996 259.587 205.396 260.28C205.796 260.947 206.316 261.467 206.956 261.84C207.596 262.213 208.316 262.4 209.116 262.4C209.89 262.4 210.596 262.213 211.236 261.84C211.903 261.467 212.423 260.947 212.796 260.28C213.196 259.587 213.396 258.76 213.396 257.8C213.396 256.84 213.196 256.013 212.796 255.32C212.423 254.627 211.903 254.093 211.236 253.72C210.596 253.347 209.89 253.16 209.116 253.16C208.316 253.16 207.596 253.347 206.956 253.72C206.316 254.093 205.796 254.627 205.396 255.32C204.996 256.013 204.796 256.84 204.796 257.8ZM240.91 267L238.39 254.4L241.43 247.2L246.99 267H240.91ZM232.79 261.76L241.43 247.2L241.83 255.36L233.99 268.24L232.79 261.76ZM233.99 268.24L226.27 255.36L226.67 247.2L235.19 261.76L233.99 268.24ZM221.11 267L226.67 247.2L229.71 254.4L227.19 267H221.11ZM248.479 257.8C248.479 255.853 248.933 254.16 249.839 252.72C250.746 251.28 251.999 250.16 253.599 249.36C255.199 248.56 256.999 248.16 258.999 248.16C260.999 248.16 262.786 248.56 264.359 249.36C265.959 250.16 267.213 251.28 268.119 252.72C269.053 254.16 269.519 255.853 269.519 257.8C269.519 259.72 269.053 261.4 268.119 262.84C267.213 264.28 265.959 265.4 264.359 266.2C262.786 267 260.999 267.4 258.999 267.4C256.999 267.4 255.199 267 253.599 266.2C251.999 265.4 250.746 264.28 249.839 262.84C248.933 261.4 248.479 259.72 248.479 257.8ZM254.679 257.8C254.679 258.76 254.879 259.587 255.279 260.28C255.679 260.947 256.199 261.467 256.839 261.84C257.479 262.213 258.199 262.4 258.999 262.4C259.773 262.4 260.479 262.213 261.119 261.84C261.786 261.467 262.306 260.947 262.679 260.28C263.079 259.587 263.279 258.76 263.279 257.8C263.279 256.84 263.079 256.013 262.679 255.32C262.306 254.627 261.786 254.093 261.119 253.72C260.479 253.347 259.773 253.16 258.999 253.16C258.199 253.16 257.479 253.347 256.839 253.72C256.199 254.093 255.679 254.627 255.279 255.32C254.879 256.013 254.679 256.84 254.679 257.8ZM283.233 253.16L283.713 248.2C285.686 248.2 287.42 248.613 288.913 249.44C290.433 250.267 291.606 251.4 292.433 252.84C293.286 254.28 293.713 255.933 293.713 257.8C293.713 259.64 293.273 261.293 292.393 262.76C291.54 264.2 290.326 265.333 288.753 266.16C287.206 266.987 285.353 267.4 283.193 267.4C281.086 267.4 279.193 266.96 277.513 266.08C275.86 265.173 274.553 263.827 273.593 262.04C272.66 260.253 272.193 258.04 272.193 255.4L278.873 257.8C278.873 258.76 279.073 259.587 279.473 260.28C279.873 260.947 280.393 261.467 281.033 261.84C281.7 262.213 282.42 262.4 283.193 262.4C283.993 262.4 284.713 262.213 285.353 261.84C285.993 261.467 286.513 260.947 286.913 260.28C287.313 259.587 287.513 258.76 287.513 257.8C287.513 256.84 287.313 256.013 286.913 255.32C286.54 254.627 286.02 254.093 285.353 253.72C284.713 253.347 284.006 253.16 283.233 253.16ZM276.193 257.8C276.193 256.307 276.366 254.973 276.713 253.8C277.06 252.6 277.566 251.587 278.233 250.76C278.9 249.933 279.686 249.307 280.593 248.88C281.526 248.427 282.566 248.2 283.713 248.2L283.233 253.16C282.7 253.16 282.166 253.267 281.633 253.48C281.1 253.667 280.62 253.96 280.193 254.36C279.793 254.76 279.473 255.253 279.233 255.84C278.993 256.4 278.873 257.053 278.873 257.8H276.193ZM272.193 255.4C272.193 252.893 272.406 250.693 272.833 248.8C273.286 246.88 274.086 245.24 275.233 243.88C276.38 242.493 277.993 241.373 280.073 240.52C281.886 239.773 283.273 239.04 284.233 238.32C285.22 237.6 285.806 236.76 285.993 235.8H291.793C291.66 236.973 291.233 238.093 290.513 239.16C289.793 240.227 288.846 241.187 287.673 242.04C286.526 242.867 285.22 243.56 283.753 244.12C282.126 244.733 280.846 245.507 279.913 246.44C279.006 247.373 278.366 248.44 277.993 249.64C277.646 250.813 277.473 252.067 277.473 253.4L278.473 257.76L272.193 255.4ZM316.129 253.8L297.569 268.4L297.769 261.8L316.329 247.2L316.129 253.8ZM303.409 248.6V262.76L297.569 268.4V248.6H303.409ZM316.329 247.2V267H310.529V252.84L316.329 247.2ZM340.521 248.6V267H334.721V254.08H327.921V260.6C327.921 262.04 327.654 263.24 327.121 264.2C326.587 265.133 325.681 265.84 324.401 266.32C323.147 266.773 321.414 267 319.201 267V261.6C320.001 261.6 320.681 261.453 321.241 261.16C321.827 260.84 322.121 260.16 322.121 259.12V248.6H340.521ZM346.363 248.6H352.403V267H346.363V248.6ZM351.083 258.72V254.8H356.803C358.696 254.8 360.283 255.267 361.563 256.2C362.869 257.107 363.523 258.547 363.523 260.52C363.523 261.827 363.229 262.973 362.643 263.96C362.056 264.947 361.256 265.707 360.243 266.24C359.229 266.747 358.083 267 356.803 267H351.083V262.32H355.723C356.176 262.32 356.549 262.253 356.843 262.12C357.163 261.987 357.403 261.787 357.563 261.52C357.749 261.227 357.843 260.893 357.843 260.52C357.843 259.987 357.656 259.56 357.283 259.24C356.936 258.893 356.416 258.72 355.723 258.72H351.083Z" fill="#212529"/>
</g>
<defs>
<clipPath id="clip0_149_783">
<rect width="366" height="282" fill="white"/>
</clipPath>
</defs>
</svg>
